<svg viewBox="0 0 580 600" xmlns="http://www.w3.org/2000/svg">
  <path
     fill="currentColor"
     d="M 460.90159,308.11775 A 32.000001,32.000001 0 0 0 415.64675,262.86292 L 347.7645,330.74517 393.01934,376 Z M 404.33304,432.56854 155.43146,183.66696 a 16,16 0 0 0 -22.62742,0 l -22.62742,22.62741 a 16,16 0 0 0 0,22.62742 l 11.31371,11.31371 -22.627415,22.62742 A 160.07,160.07 0 0 0 78.49824,464.24693 l -70.144993,70.14499 45.254834,45.25483 70.144989,-70.14499 a 160.07,160.07 0 0 0 201.38401,-20.36468 l 22.62742,-22.62741 11.31371,11.31371 a 16,16 0 0 0 22.62742,0 l 22.62741,-22.62742 a 16,16 0 0 0 0,-22.62742 z M 325.13708,172.35325 A 32.000001,32.000001 0 0 0 279.88225,127.09841 L 212,194.98066 257.25483,240.2355 Z"/>
  <path
     fill="currentColor"
     d="m 169.28948,174.81076 248.90158,248.90158 c 6.24839,6.24838 16.37902,6.24838 22.62741,0 l 22.62742,-22.62741 c 6.24839,-6.24839 6.24839,-16.37903 0,-22.62742 L 452.13218,367.1438 474.7596,344.51638 c 53.75544,-53.77189 62.26671,-137.93889 20.36467,-201.38401 l 70.145,-70.14499 -45.25484,-45.25483 -70.14498,70.14499 C 386.42433,55.975507 302.25733,64.486779 248.48544,118.24222 l -22.62743,22.62741 -11.31371,-11.31371 c -6.24839,-6.24839 -16.37903,-6.24839 -22.62742,0 l -22.62741,22.62742 c -6.24839,6.24839 -6.24838,16.37903 1e-5,22.62742 z"/>
</svg>
