<svg viewBox="0 0 680 700" xmlns="http://www.w3.org/2000/svg">
  <path
     fill="currentColor"
     d="M 404.33304,532.56854 155.43146,283.66696 c -6.24839,-6.24839 -16.37903,-6.24839 -22.62742,0 l -22.62742,22.62741 c -6.24839,6.24839 -6.24839,16.37903 0,22.62742 l 11.31371,11.31371 -22.627415,22.62742 C 45.107476,416.63481 36.596206,500.80181 78.49824,564.24693 l -70.144993,70.14499 45.254834,45.25483 70.144989,-70.14499 c 63.44512,41.90203 147.61212,33.39076 201.38401,-20.36468 l 22.62742,-22.62741 11.31371,11.31371 c 6.24839,6.24839 16.37903,6.24839 22.62742,0 l 22.62741,-22.62742 c 6.24839,-6.24839 6.24839,-16.37903 0,-22.62742 z"/>
  <path
     fill="currentColor"
     d="m 269.28948,174.81076 248.90158,248.90158 c 6.24839,6.24838 16.37902,6.24838 22.62741,0 l 22.62742,-22.62741 c 6.24839,-6.24839 6.24839,-16.37903 0,-22.62742 L 552.13218,367.1438 574.7596,344.51638 c 53.75544,-53.77189 62.26671,-137.93889 20.36467,-201.38401 l 70.145,-70.14499 -45.25484,-45.25483 -70.14498,70.14499 C 486.42433,55.975507 402.25733,64.486779 348.48544,118.24222 l -22.62743,22.62741 -11.31371,-11.31371 c -6.24839,-6.24839 -16.37903,-6.24839 -22.62742,0 l -22.62741,22.62742 c -6.24839,6.24839 -6.24838,16.37903 1e-5,22.62742 z"/>
  <path
     d="m 308.13708,292.11775 c 12.49392,-12.49729 12.49254,-32.75619 -0.003,-45.25178 -12.49559,-12.4956 -32.7545,-12.49698 -45.25178,-0.003 L 195,314.74515 240.25483,360 Z"
     style="fill:currentColor"/>
  <path
     d="m 443.13708,427.11775 c 12.49392,-12.49729 12.49254,-32.75619 -0.003,-45.25178 -12.49559,-12.4956 -32.7545,-12.49698 -45.25178,-0.003 L 330,449.74515 375.25483,495 Z"
     style="fill:currentColor"/>
</svg>
